HIERARCHY
ROOT joint_Root
{
  OFFSET 0 0 0
  CHANNELS 6 Xposition Yposition Zposition Zrotation Xrotation Yrotation
  JOINT Hips
  {
    OFFSET 0.847027 93.984 -452.225
    CHANNELS 6 Xposition Yposition Zposition Zrotation Xrotation Yrotation
    JOINT Spine
    {
      OFFSET 15.7357 0 0
      CHANNELS 6 Xposition Yposition Zposition Zrotation Xrotation Yrotation
      JOINT Chest
      {
        OFFSET 8.98455 -0.406207 0
        CHANNELS 6 Xposition Yposition Zposition Zrotation Xrotation Yrotation
        JOINT Neck
        {
          OFFSET 16.3773 0 0
          CHANNELS 6 Xposition Yposition Zposition Zrotation Xrotation Yrotation
          JOINT Head
          {
            OFFSET 6.45672 0 0
            CHANNELS 6 Xposition Yposition Zposition Zrotation Xrotation Yrotation
            End Site
            {
              OFFSET 0 0 0
            }
          }
        }
        JOINT Shoulder_L
        {
          OFFSET 12.9942 -0.242716 4.98039
          CHANNELS 6 Xposition Yposition Zposition Zrotation Xrotation Yrotation
          JOINT UpperArm_L
          {
            OFFSET 5.34809 0 0
            CHANNELS 6 Xposition Yposition Zposition Zrotation Xrotation Yrotation
            JOINT LowerArm_L
            {
              OFFSET 24.3286 1.87007e-05 0
              CHANNELS 6 Xposition Yposition Zposition Zrotation Xrotation Yrotation
              JOINT Hand_L
              {
                OFFSET 22.2916 0 0
                CHANNELS 6 Xposition Yposition Zposition Zrotation Xrotation Yrotation
                End Site
                {
                  OFFSET 0 0 0
                }
              }
            }
          }
        }
        JOINT Shoulder_R
        {
          OFFSET 12.9945 -0.242716 -4.98039
          CHANNELS 6 Xposition Yposition Zposition Zrotation Xrotation Yrotation
          JOINT UpperArm_R
          {
            OFFSET -5.34813 0 0
            CHANNELS 6 Xposition Yposition Zposition Zrotation Xrotation Yrotation
            JOINT LowerArm_R
            {
              OFFSET -24.3289 0.000322201 0
              CHANNELS 6 Xposition Yposition Zposition Zrotation Xrotation Yrotation
              JOINT Hand_R
              {
                OFFSET -22.2915 -0.000108084 0
                CHANNELS 6 Xposition Yposition Zposition Zrotation Xrotation Yrotation
                End Site
                {
                  OFFSET 0 0 0
                }
              }
            }
          }
        }
      }
    }
    JOINT UpperLeg_L
    {
      OFFSET -2.19248 -6.46944 0
      CHANNELS 6 Xposition Yposition Zposition Zrotation Xrotation Yrotation
      JOINT LowerLeg_L
      {
        OFFSET 39.0811 0 -1.23785e-05
        CHANNELS 6 Xposition Yposition Zposition Zrotation Xrotation Yrotation
        JOINT Foot_L
        {
          OFFSET 40.9854 0 -1.26872e-05
          CHANNELS 6 Xposition Yposition Zposition Zrotation Xrotation Yrotation
          JOINT Toes_L
          {
            OFFSET 11.7543 0 0
            CHANNELS 6 Xposition Yposition Zposition Zrotation Xrotation Yrotation
            End Site
            {
              OFFSET 0 0 0
            }
          }
        }
      }
    }
    JOINT UpperLeg_R
    {
      OFFSET -2.19251 6.46944 0
      CHANNELS 6 Xposition Yposition Zposition Zrotation Xrotation Yrotation
      JOINT LowerLeg_R
      {
        OFFSET -39.0811 -0.00228153 -0.0401928
        CHANNELS 6 Xposition Yposition Zposition Zrotation Xrotation Yrotation
        JOINT Foot_R
        {
          OFFSET -40.9854 0 0
          CHANNELS 6 Xposition Yposition Zposition Zrotation Xrotation Yrotation
          JOINT Toes_R
          {
            OFFSET -11.7543 0 0
            CHANNELS 6 Xposition Yposition Zposition Zrotation Xrotation Yrotation
            End Site
            {
              OFFSET 0 0 0
            }
          }
        }
      }
    }
  }
}
MOTION
Frames:	8
Frame Time:	0.0333333
0 0 0 0 0 -0 -9.07247 93.1459 -49.3691 89.6718 7.90062 0.835588 15.7357 5.1072e-06 -5.51765e-07 94.1269 75.2111 -92.8903 8.98455 -0.406207 -4.3199e-07 21.7229 2.22262 2.05711 16.3773 -1.3905e-06 -6.99897e-07 16.512 -4.31797 2.04875 6.45672 -1.25837e-06 -1.02172e-07 6.3136 -6.5228 -4.12796 12.9942 -0.242716 4.98039 -91.3719 7.13989 -94.0934 5.34809 -7.22636e-06 -6.2814e-07 -55.7489 22.3527 -30.7697 24.3286 1.87007e-05 4.90208e-06 -0.494642 -1.43899 -18.9419 22.2916 -9.88446e-07 4.63217e-06 18.3762 5.5645 -9.41013 12.9945 -0.242716 -4.98039 90.1542 -1.05203 -96.6618 -5.34813 -1.25947e-06 -3.79883e-06 -48.7451 -21.9077 -72.3931 -24.3289 0.000322201 -8.65921e-06 -16.4063 -31.4372 -29.4467 -22.2915 -0.000108084 -4.47941e-06 16.7676 5.31944 -0.479913 -2.19248 -6.46944 -1.22534e-07 -171.318 -3.63971 -9.99125 39.0811 -6.73843e-06 -1.23785e-05 0.0397813 -0.143383 15.9632 40.9854 -6.48686e-06 -1.26872e-05 -7.38329 2.12871 -51.893 11.7543 -2.30145e-07 3.05095e-06 0.0621382 -0.0990044 -18.334 -2.19251 6.46944 -1.45247e-06 177.682 18.8579 172.928 -39.0811 -0.00228153 -0.0401928 0.0314291 -0.0816592 15.6252 -40.9854 7.72618e-06 5.99936e-06 -1.22722 1.74129 -57.3758 -11.7543 -5.6619e-06 -5.58687e-06 -0.211761 0.140459 -16.57 
0 0 0 0 0 -0 -9.01674 93.093 -49.5097 89.4596 7.45443 0.766134 15.7357 5.1072e-06 -5.51765e-07 94.0284 75.1653 -92.8416 8.98455 -0.406207 -4.3199e-07 21.819 2.174 1.96481 16.3773 -1.3905e-06 -6.99897e-07 16.0765 -4.25665 1.48005 6.45672 -1.25837e-06 -1.02172e-07 5.4935 -6.44827 -4.6459 12.9942 -0.242716 4.98039 -91.3656 7.37068 -94.473 5.34809 -7.22636e-06 -6.2814e-07 -55.3379 22.4439 -31.2578 24.3286 1.87007e-05 4.90208e-06 -0.432789 -1.27175 -18.8002 22.2916 -9.88446e-07 4.63217e-06 18.2459 5.56625 -9.49752 12.9945 -0.242716 -4.98039 89.9729 0.198012 -97.1626 -5.34813 -1.25947e-06 -3.79883e-06 -46.0091 -18.1144 -66.8242 -24.3289 0.000322201 -8.65921e-06 -15.3624 -28.2993 -30.094 -22.2915 -0.000108084 -4.47941e-06 15.8274 5.32341 -0.594083 -2.19248 -6.46944 -1.22534e-07 -171.17 -3.91016 -10.0454 39.0811 -6.73843e-06 -1.23785e-05 0.0399037 -0.143545 15.996 40.9854 -6.48686e-06 -1.26872e-05 -7.27493 1.93853 -52.2868 11.7543 -2.30145e-07 3.05095e-06 0.0561118 -0.0890957 -18.1596 -2.19251 6.46944 -1.45247e-06 177.934 18.6125 172.525 -39.0811 -0.00228153 -0.0401928 0.0329998 -0.0850353 15.8992 -40.9854 7.72618e-06 5.99936e-06 -1.20208 1.94338 -57.3627 -11.7543 -5.6619e-06 -5.58687e-06 -0.205694 0.137286 -16.5699 
0 0 0 0 0 -0 -8.96032 93.046 -49.6476 89.2849 7.11065 0.782003 15.7357 5.1072e-06 -5.51765e-07 93.7489 75.0378 -92.6258 8.98455 -0.406207 -4.3199e-07 22.0844 2.04323 1.85753 16.3773 -1.3905e-06 -6.99897e-07 15.4935 -4.04339 0.752482 6.45672 -1.25837e-06 -1.02172e-07 4.43349 -6.32167 -5.19242 12.9942 -0.242716 4.98039 -91.3557 7.56739 -94.812 5.34809 -7.22636e-06 -6.2814e-07 -54.5864 22.7331 -32.0181 24.3286 1.87007e-05 4.90208e-06 -0.365168 -1.07278 -18.7872 22.2916 -9.88446e-07 4.63217e-06 18.0368 5.56536 -9.453 12.9945 -0.242716 -4.98039 89.8086 1.56223 -98.0092 -5.34813 -1.25947e-06 -3.79883e-06 -43.7999 -13.7496 -61.2252 -24.3289 0.000322201 -8.65921e-06 -13.2363 -24.3454 -29.7068 -22.2915 -0.000108084 -4.47941e-06 15.5386 5.32014 -0.4998 -2.19248 -6.46944 -1.22534e-07 -171.062 -4.12599 -10.013 39.0811 -6.73843e-06 -1.23785e-05 0.0392351 -0.141396 15.9916 40.9854 -6.48686e-06 -1.26872e-05 -7.09551 1.75512 -52.6766 11.7543 -2.30145e-07 3.05095e-06 0.0459375 -0.0725343 -17.8675 -2.19251 6.46944 -1.45247e-06 178.107 18.3905 172.256 -39.0811 -0.00228153 -0.0401928 0.0339348 -0.0886487 16.1448 -40.9854 7.72618e-06 5.99936e-06 -1.19583 2.05579 -57.3521 -11.7543 -5.6619e-06 -5.58687e-06 -0.206277 0.138376 -16.5698 
0 0 0 0 0 -0 -8.89301 92.9815 -49.7843 89.1696 6.82972 0.828708 15.7357 5.1072e-06 -5.51765e-07 93.656 74.9014 -92.572 8.98455 -0.406207 -4.3199e-07 22.3605 2.00951 1.78083 16.3773 -1.3905e-06 -6.99897e-07 14.8906 -4.00681 -0.0525007 6.45672 -1.25837e-06 -1.02172e-07 3.41257 -6.16645 -5.8061 12.9942 -0.242716 4.98039 -91.3339 7.81239 -95.2798 5.34809 -7.22636e-06 -6.2814e-07 -53.566 23.3328 -33.0175 24.3286 1.87007e-05 4.90208e-06 -0.415104 -1.22673 -18.6782 22.2916 -9.88446e-07 4.63217e-06 17.9277 5.56554 -9.46184 12.9945 -0.242716 -4.98039 89.7082 2.77106 -98.9848 -5.34813 -1.25947e-06 -3.79883e-06 -42.8159 -8.99964 -55.5081 -24.3289 0.000322201 -8.65921e-06 -9.98392 -19.1201 -28.2506 -22.2915 -0.000108084 -4.47941e-06 15.743 5.30543 -0.0803737 -2.19248 -6.46944 -1.22534e-07 -171.008 -4.22534 -10.0248 39.0811 -6.73843e-06 -1.23785e-05 0.0392217 -0.140197 16.1101 40.9854 -6.48686e-06 -1.26872e-05 -7.01813 1.52855 -53.0485 11.7543 -2.30145e-07 3.05095e-06 0.0393549 -0.0619207 -17.6799 -2.19251 6.46944 -1.45247e-06 178.198 18.1039 171.913 -39.0811 -0.00228153 -0.0401928 0.036646 -0.0909643 16.6183 -40.9854 7.72618e-06 5.99936e-06 -1.21195 2.06725 -57.4516 -11.7543 -5.6619e-06 -5.58687e-06 -0.206829 0.139341 -16.5698 
0 0 0 0 0 -0 -8.8285 92.9332 -49.9299 89.1243 6.65264 0.853401 15.7357 5.1072e-06 -5.51765e-07 93.6553 74.7333 -92.6199 8.98455 -0.406207 -4.3199e-07 22.6971 2.02538 1.67453 16.3773 -1.3905e-06 -6.99897e-07 14.3071 -3.93619 -0.764419 6.45672 -1.25837e-06 -1.02172e-07 2.18249 -6.02671 -6.6127 12.9942 -0.242716 4.98039 -91.2943 8.00783 -95.7879 5.34809 -7.22636e-06 -6.2814e-07 -52.5941 23.743 -34.2222 24.3286 1.87007e-05 4.90208e-06 -0.355386 -1.0652 -18.5123 22.2916 -9.88446e-07 4.63217e-06 17.7373 5.56514 -9.44165 12.9945 -0.242716 -4.98039 89.6347 4.33129 -100.171 -5.34813 -1.25947e-06 -3.79883e-06 -42.078 -4.11633 -49.9093 -24.3289 0.000322201 -8.65921e-06 -6.96554 -14.8347 -25.4985 -22.2915 -0.000108084 -4.47941e-06 15.0913 5.2904 0.342361 -2.19248 -6.46944 -1.22534e-07 -171.024 -4.25816 -10.1015 39.0811 -6.73843e-06 -1.23785e-05 0.0390172 -0.138246 16.247 40.9854 -6.48686e-06 -1.26872e-05 -6.87092 1.3869 -53.3179 11.7543 -2.30145e-07 3.05095e-06 0.0329441 -0.0516522 -17.498 -2.19251 6.46944 -1.45247e-06 178.222 17.8189 171.619 -39.0811 -0.00228153 -0.0401928 0.0381268 -0.0950632 16.9965 -40.9854 7.72618e-06 5.99936e-06 -1.24442 1.95529 -57.5178 -11.7543 -5.6619e-06 -5.58687e-06 -0.200508 0.135345 -16.5698 
0 0 0 0 0 -0 -8.77546 92.8798 -50.0438 89.0871 6.64154 1.03319 15.7357 5.1072e-06 -5.51765e-07 93.5057 74.5152 -92.4779 8.98455 -0.406207 -4.3199e-07 23.1378 1.97488 1.66195 16.3773 -1.3905e-06 -6.99897e-07 13.6324 -3.89924 -1.80305 6.45672 -1.25837e-06 -1.02172e-07 1.1582 -5.88574 -7.30059 12.9942 -0.242716 4.98039 -91.2297 8.38932 -96.6301 5.34809 -7.22636e-06 -6.2814e-07 -51.7757 23.6886 -35.0353 24.3286 1.87007e-05 4.90208e-06 -0.412833 -1.22147 -18.6465 22.2916 -9.88446e-07 4.63217e-06 17.6234 5.565 -9.43495 12.9945 -0.242716 -4.98039 89.6741 6.42465 -102.085 -5.34813 -1.25947e-06 -3.79883e-06 -42.6652 -0.543221 -43.8936 -24.3289 0.000322201 -8.65921e-06 -3.75063 -9.25288 -22.164 -22.2915 -0.000108084 -4.47941e-06 13.7416 5.25898 1.19637 -2.19248 -6.46944 -1.22534e-07 -171.022 -4.29538 -10.1227 39.0811 -6.73843e-06 -1.23785e-05 0.0396828 -0.137867 16.5182 40.9854 -6.48686e-06 -1.26872e-05 -6.88003 1.44523 -53.5014 11.7543 -2.30145e-07 3.05095e-06 0.0318432 -0.0498736 -17.4665 -2.19251 6.46944 -1.45247e-06 178.182 17.6638 171.498 -39.0811 -0.00228153 -0.0401928 0.0403776 -0.0987338 17.4275 -40.9854 7.72618e-06 5.99936e-06 -1.27966 1.8486 -57.6406 -11.7543 -5.6619e-06 -5.58687e-06 -0.204671 0.138268 -16.5697 
0 0 0 0 0 -0 -8.71607 92.8155 -50.1721 89.0092 6.63986 1.28461 15.7357 5.1072e-06 -5.51765e-07 93.6455 74.2631 -92.546 8.98455 -0.406207 -4.3199e-07 23.6352 2.09103 1.7737 16.3773 -1.3905e-06 -6.99897e-07 12.8142 -3.71714 -2.73137 6.45672 -1.25837e-06 -1.02172e-07 0.0980993 -6.0838 -8.57507 12.9942 -0.242716 4.98039 -91.1164 8.99739 -97.8967 5.34809 -7.22636e-06 -6.2814e-07 -51.023 23.3315 -35.4712 24.3286 1.87007e-05 4.90208e-06 -0.669671 -1.93488 -19.1597 22.2916 -9.88446e-07 4.63217e-06 17.1525 5.56381 -9.37543 12.9945 -0.242716 -4.98039 89.9473 8.762 -104.65 -5.34813 -1.25947e-06 -3.79883e-06 -44.0406 1.53872 -36.9917 -24.3289 0.000322201 -8.65921e-06 -1.94808 -5.63461 -19.0899 -22.2915 -0.000108084 -4.47941e-06 12.6821 5.22825 2.00179 -2.19248 -6.46944 -1.22534e-07 -170.979 -4.28569 -10.1077 39.0811 -6.73843e-06 -1.23785e-05 0.0399767 -0.135921 16.8637 40.9854 -6.48686e-06 -1.26872e-05 -6.83611 1.4769 -53.8319 11.7543 -2.30145e-07 3.05095e-06 0.0263308 -0.0411372 -17.3115 -2.19251 6.46944 -1.45247e-06 178.154 17.4611 171.432 -39.0811 -0.00228153 -0.0401928 0.0418019 -0.0997813 17.8995 -40.9854 7.72618e-06 5.99936e-06 -1.33033 1.69173 -57.7879 -11.7543 -5.6619e-06 -5.58687e-06 -0.200528 0.135455 -16.5698 
0 0 0 0 0 -0 -8.65495 92.7415 -50.3822 88.9541 6.53555 1.37268 15.7357 5.1072e-06 -5.51765e-07 94.1974 73.9533 -92.908 8.98455 -0.406207 -4.3199e-07 24.2294 2.45736 2.06674 16.3773 -1.3905e-06 -6.99897e-07 11.4402 -3.62179 -3.87399 6.45672 -1.25837e-06 -1.02172e-07 -1.14788 -6.23926 -10.3032 12.9942 -0.242716 4.98039 -90.9429 9.73525 -99.4406 5.34809 -7.22636e-06 -6.2814e-07 -50.1945 22.913 -36.09 24.3286 1.87007e-05 4.90208e-06 -1.08832 -3.02903 -19.7326 22.2916 -9.88446e-07 4.63217e-06 16.5388 5.56601 -9.4853 12.9945 -0.242716 -4.98039 90.3436 10.3796 -106.906 -5.34813 -1.25947e-06 -3.79883e-06 -46.6283 2.25098 -30.2105 -24.3289 0.000322201 -8.65921e-06 -0.89818 -3.07985 -16.2043 -22.2915 -0.000108084 -4.47941e-06 12.5774 5.20599 2.5681 -2.19248 -6.46944 -1.22534e-07 -170.973 -4.30236 -10.3891 39.0811 -6.73843e-06 -1.23785e-05 0.0415614 -0.137053 17.356 40.9854 -6.48686e-06 -1.26872e-05 -6.80432 1.42395 -54.0655 11.7543 -2.30145e-07 3.05095e-06 0.023677 -0.0369497 -17.2368 -2.19251 6.46944 -1.45247e-06 178.171 17.1241 171.072 -39.0811 -0.00228153 -0.0401928 0.0446473 -0.105725 18.4503 -40.9854 7.72618e-06 5.99936e-06 -1.37548 1.50812 -57.8982 -11.7543 -5.6619e-06 -5.58687e-06 -0.197064 0.133356 -16.5698 
